<svg width="339" height="339" viewBox="0 0 339 339" fill="none" xmlns="http://www.w3.org/2000/svg">
<path fill-rule="evenodd" clip-rule="evenodd" d="M169.278 329.686C257.869 329.686 329.686 257.869 329.686 169.278C329.686 80.6874 257.869 8.87047 169.278 8.87047C80.6874 8.87047 8.87047 80.6874 8.87047 169.278C8.87047 257.869 80.6874 329.686 169.278 329.686ZM169.278 338.556C262.768 338.556 338.556 262.768 338.556 169.278C338.556 75.7884 262.768 0 169.278 0C75.7884 0 0 75.7884 0 169.278C0 262.768 75.7884 338.556 169.278 338.556Z" fill="url(#paint0_linear_304_46)"/>
<path fill-rule="evenodd" clip-rule="evenodd" d="M169.278 329.686C257.869 329.686 329.686 257.869 329.686 169.278C329.686 80.6874 257.869 8.87047 169.278 8.87047C80.6874 8.87047 8.87047 80.6874 8.87047 169.278C8.87047 257.869 80.6874 329.686 169.278 329.686ZM169.278 338.556C262.768 338.556 338.556 262.768 338.556 169.278C338.556 75.7884 262.768 0 169.278 0C75.7884 0 0 75.7884 0 169.278C0 262.768 75.7884 338.556 169.278 338.556Z" fill="url(#paint1_radial_304_46)" fill-opacity="0.76"/>
<path fill-rule="evenodd" clip-rule="evenodd" d="M169.278 329.686C257.869 329.686 329.686 257.869 329.686 169.278C329.686 80.6874 257.869 8.87047 169.278 8.87047C80.6874 8.87047 8.87047 80.6874 8.87047 169.278C8.87047 257.869 80.6874 329.686 169.278 329.686ZM169.278 338.556C262.768 338.556 338.556 262.768 338.556 169.278C338.556 75.7884 262.768 0 169.278 0C75.7884 0 0 75.7884 0 169.278C0 262.768 75.7884 338.556 169.278 338.556Z" fill="url(#paint2_radial_304_46)" fill-opacity="0.76"/>
<path d="M15.1456 180.765C15.143 180.729 15.1404 180.694 15.1379 180.658C15.1298 180.546 15.1219 180.434 15.1141 180.322C15.1244 180.47 15.1349 180.617 15.1456 180.765Z" fill="url(#paint3_linear_304_46)"/>
<path d="M15.1456 180.765C15.143 180.729 15.1404 180.694 15.1379 180.658C15.1298 180.546 15.1219 180.434 15.1141 180.322C15.1244 180.47 15.1349 180.617 15.1456 180.765Z" fill="url(#paint4_radial_304_46)" fill-opacity="0.76"/>
<path d="M15.1456 180.765C15.143 180.729 15.1404 180.694 15.1379 180.658C15.1298 180.546 15.1219 180.434 15.1141 180.322C15.1244 180.47 15.1349 180.617 15.1456 180.765Z" fill="url(#paint5_radial_304_46)" fill-opacity="0.76"/>
<path d="M14.7859 168.465C14.7845 168.736 14.7839 169.007 14.7839 169.278C14.7839 173.061 14.9185 176.813 15.1834 180.528L15.1902 180.623C15.3082 182.265 15.4515 183.899 15.6199 185.526C16.4326 184.138 17.2801 182.773 18.1611 181.432C19.0469 180.083 19.9666 178.759 20.9189 177.46C20.8359 175.93 20.776 174.394 20.7396 172.852C19.7678 174.08 18.8253 175.332 17.9131 176.608C17.7986 174.179 17.7407 171.735 17.7407 169.278C17.7407 84.77 86.2481 16.2626 170.756 16.2626C255.264 16.2626 323.772 84.77 323.772 169.278C323.772 253.786 255.264 322.294 170.756 322.294C160.074 322.294 149.65 321.199 139.589 319.118C141.57 318.128 143.512 317.072 145.413 315.952C143.882 315.705 142.359 315.434 140.844 315.141C138.888 316.198 136.889 317.187 134.851 318.106C133.385 318.767 131.898 319.391 130.393 319.977C131.927 320.387 133.471 320.774 135.023 321.138L135.193 321.178C139.04 322.075 142.943 322.83 146.894 323.437C146.98 323.45 147.066 323.463 147.152 323.476C154.613 324.609 162.248 325.213 170.017 325.249C255.818 324.851 325.25 255.173 325.25 169.278C325.25 83.3835 255.818 13.7056 170.017 13.3075C89.5786 13.6807 23.5268 74.9444 15.5846 153.376C15.0818 158.34 14.8119 163.374 14.7859 168.465Z" fill="url(#paint6_linear_304_46)"/>
<path d="M14.7859 168.465C14.7845 168.736 14.7839 169.007 14.7839 169.278C14.7839 173.061 14.9185 176.813 15.1834 180.528L15.1902 180.623C15.3082 182.265 15.4515 183.899 15.6199 185.526C16.4326 184.138 17.2801 182.773 18.1611 181.432C19.0469 180.083 19.9666 178.759 20.9189 177.46C20.8359 175.93 20.776 174.394 20.7396 172.852C19.7678 174.08 18.8253 175.332 17.9131 176.608C17.7986 174.179 17.7407 171.735 17.7407 169.278C17.7407 84.77 86.2481 16.2626 170.756 16.2626C255.264 16.2626 323.772 84.77 323.772 169.278C323.772 253.786 255.264 322.294 170.756 322.294C160.074 322.294 149.65 321.199 139.589 319.118C141.57 318.128 143.512 317.072 145.413 315.952C143.882 315.705 142.359 315.434 140.844 315.141C138.888 316.198 136.889 317.187 134.851 318.106C133.385 318.767 131.898 319.391 130.393 319.977C131.927 320.387 133.471 320.774 135.023 321.138L135.193 321.178C139.04 322.075 142.943 322.83 146.894 323.437C146.98 323.45 147.066 323.463 147.152 323.476C154.613 324.609 162.248 325.213 170.017 325.249C255.818 324.851 325.25 255.173 325.25 169.278C325.25 83.3835 255.818 13.7056 170.017 13.3075C89.5786 13.6807 23.5268 74.9444 15.5846 153.376C15.0818 158.34 14.8119 163.374 14.7859 168.465Z" fill="url(#paint7_radial_304_46)" fill-opacity="0.76"/>
<path d="M14.7859 168.465C14.7845 168.736 14.7839 169.007 14.7839 169.278C14.7839 173.061 14.9185 176.813 15.1834 180.528L15.1902 180.623C15.3082 182.265 15.4515 183.899 15.6199 185.526C16.4326 184.138 17.2801 182.773 18.1611 181.432C19.0469 180.083 19.9666 178.759 20.9189 177.46C20.8359 175.93 20.776 174.394 20.7396 172.852C19.7678 174.08 18.8253 175.332 17.9131 176.608C17.7986 174.179 17.7407 171.735 17.7407 169.278C17.7407 84.77 86.2481 16.2626 170.756 16.2626C255.264 16.2626 323.772 84.77 323.772 169.278C323.772 253.786 255.264 322.294 170.756 322.294C160.074 322.294 149.65 321.199 139.589 319.118C141.57 318.128 143.512 317.072 145.413 315.952C143.882 315.705 142.359 315.434 140.844 315.141C138.888 316.198 136.889 317.187 134.851 318.106C133.385 318.767 131.898 319.391 130.393 319.977C131.927 320.387 133.471 320.774 135.023 321.138L135.193 321.178C139.04 322.075 142.943 322.83 146.894 323.437C146.98 323.45 147.066 323.463 147.152 323.476C154.613 324.609 162.248 325.213 170.017 325.249C255.818 324.851 325.25 255.173 325.25 169.278C325.25 83.3835 255.818 13.7056 170.017 13.3075C89.5786 13.6807 23.5268 74.9444 15.5846 153.376C15.0818 158.34 14.8119 163.374 14.7859 168.465Z" fill="url(#paint8_radial_304_46)" fill-opacity="0.76"/>
<path fill-rule="evenodd" clip-rule="evenodd" d="M145.413 315.952C147.371 314.799 149.284 313.579 151.15 312.294C161.182 305.391 169.844 296.64 176.644 286.531C178.354 283.991 179.945 281.364 181.412 278.66C188.82 264.998 193.027 249.346 193.027 232.711C193.027 179.393 149.804 136.171 96.4867 136.171C85.4037 136.171 74.7572 138.038 64.8447 141.476C61.9316 142.486 59.082 143.632 56.3033 144.906C44.4226 150.352 33.8387 158.138 25.1416 167.673C23.6151 169.346 22.1467 171.074 20.7396 172.852C20.776 174.394 20.8359 175.93 20.9189 177.46C19.9666 178.759 19.0469 180.083 18.1611 181.432C17.2801 182.773 16.4326 184.138 15.6199 185.526C15.4515 183.899 15.3082 182.265 15.1902 180.623L15.1834 180.528C14.9185 176.813 14.7839 173.061 14.7839 169.278C14.7839 169.007 14.7845 168.736 14.7859 168.465C14.8119 163.374 15.0818 158.34 15.5846 153.376C23.5268 74.9444 89.5786 13.6807 170.017 13.3075C255.818 13.7056 325.25 83.3835 325.25 169.278C325.25 255.173 255.818 324.851 170.017 325.249C162.248 325.213 154.613 324.609 147.152 323.476L146.894 323.437C142.943 322.83 139.04 322.075 135.193 321.178L135.023 321.138C133.471 320.774 131.927 320.387 130.393 319.977C131.898 319.391 133.385 318.767 134.851 318.106C136.889 317.187 138.888 316.198 140.844 315.141C142.359 315.434 143.882 315.705 145.413 315.952ZM170.017 325.249C170.264 325.25 170.51 325.251 170.756 325.251C256.897 325.251 326.729 255.419 326.729 169.278C326.729 83.137 256.897 13.3058 170.756 13.3058C170.51 13.3058 170.263 13.3064 170.017 13.3075C169.771 13.3064 169.524 13.3058 169.278 13.3058C83.1368 13.3058 13.3056 83.137 13.3056 169.278C13.3056 255.419 83.1368 325.251 169.278 325.251C169.432 325.251 169.587 325.25 169.741 325.25L170.017 325.249ZM58.8527 135.803C73.882 89.586 117.309 56.1798 168.539 56.1798C232.226 56.1798 283.855 107.809 283.855 171.496C283.855 229.234 241.42 277.062 186.037 285.493C187.626 282.803 189.098 280.034 190.445 277.195C239.546 267.072 276.463 223.595 276.463 171.496C276.463 111.891 228.143 63.5719 168.539 63.5719C122.571 63.5719 83.3152 92.3105 67.7589 132.801C64.7312 133.67 61.7602 134.673 58.8527 135.803ZM147.871 310.938C147.576 311.132 147.28 311.325 146.983 311.515C146.902 311.568 146.82 311.62 146.739 311.671C78.7466 300.995 26.5283 242.788 25.16 172.125C25.6218 171.581 26.0898 171.044 26.5637 170.511C34.6443 161.434 44.466 153.94 55.5046 148.555C54.008 155.969 53.2225 163.641 53.2225 171.496C53.2225 235.183 104.851 286.812 168.539 286.812C170.004 286.812 171.462 286.785 172.914 286.73C166.155 296.276 157.653 304.5 147.871 310.938ZM169.278 25.1331C93.9302 25.1331 32.0851 82.9449 25.68 156.631L25.6738 156.637C32.0805 82.1303 94.5895 23.6547 170.756 23.6547C251.182 23.6547 316.38 88.8525 316.38 169.278C316.38 249.704 251.182 314.902 170.756 314.902C167.326 314.902 163.924 314.783 160.555 314.55C161.1 314.123 161.641 313.69 162.178 313.251C164.53 313.366 166.897 313.423 169.278 313.423C248.887 313.423 313.423 248.887 313.423 169.278C313.423 89.669 248.887 25.1331 169.278 25.1331ZM168.539 279.42C108.934 279.42 60.6146 231.101 60.6146 171.496C60.6146 162.338 61.7552 153.447 63.902 144.956C74.0492 141.187 85.0275 139.127 96.4867 139.127C148.171 139.127 190.07 181.026 190.07 232.711C190.07 249.56 185.617 265.369 177.824 279.026C174.764 279.287 171.667 279.42 168.539 279.42Z" fill="url(#paint9_linear_304_46)"/>
<path fill-rule="evenodd" clip-rule="evenodd" d="M145.413 315.952C147.371 314.799 149.284 313.579 151.15 312.294C161.182 305.391 169.844 296.64 176.644 286.531C178.354 283.991 179.945 281.364 181.412 278.66C188.82 264.998 193.027 249.346 193.027 232.711C193.027 179.393 149.804 136.171 96.4867 136.171C85.4037 136.171 74.7572 138.038 64.8447 141.476C61.9316 142.486 59.082 143.632 56.3033 144.906C44.4226 150.352 33.8387 158.138 25.1416 167.673C23.6151 169.346 22.1467 171.074 20.7396 172.852C20.776 174.394 20.8359 175.93 20.9189 177.46C19.9666 178.759 19.0469 180.083 18.1611 181.432C17.2801 182.773 16.4326 184.138 15.6199 185.526C15.4515 183.899 15.3082 182.265 15.1902 180.623L15.1834 180.528C14.9185 176.813 14.7839 173.061 14.7839 169.278C14.7839 169.007 14.7845 168.736 14.7859 168.465C14.8119 163.374 15.0818 158.34 15.5846 153.376C23.5268 74.9444 89.5786 13.6807 170.017 13.3075C255.818 13.7056 325.25 83.3835 325.25 169.278C325.25 255.173 255.818 324.851 170.017 325.249C162.248 325.213 154.613 324.609 147.152 323.476L146.894 323.437C142.943 322.83 139.04 322.075 135.193 321.178L135.023 321.138C133.471 320.774 131.927 320.387 130.393 319.977C131.898 319.391 133.385 318.767 134.851 318.106C136.889 317.187 138.888 316.198 140.844 315.141C142.359 315.434 143.882 315.705 145.413 315.952ZM170.017 325.249C170.264 325.25 170.51 325.251 170.756 325.251C256.897 325.251 326.729 255.419 326.729 169.278C326.729 83.137 256.897 13.3058 170.756 13.3058C170.51 13.3058 170.263 13.3064 170.017 13.3075C169.771 13.3064 169.524 13.3058 169.278 13.3058C83.1368 13.3058 13.3056 83.137 13.3056 169.278C13.3056 255.419 83.1368 325.251 169.278 325.251C169.432 325.251 169.587 325.25 169.741 325.25L170.017 325.249ZM58.8527 135.803C73.882 89.586 117.309 56.1798 168.539 56.1798C232.226 56.1798 283.855 107.809 283.855 171.496C283.855 229.234 241.42 277.062 186.037 285.493C187.626 282.803 189.098 280.034 190.445 277.195C239.546 267.072 276.463 223.595 276.463 171.496C276.463 111.891 228.143 63.5719 168.539 63.5719C122.571 63.5719 83.3152 92.3105 67.7589 132.801C64.7312 133.67 61.7602 134.673 58.8527 135.803ZM147.871 310.938C147.576 311.132 147.28 311.325 146.983 311.515C146.902 311.568 146.82 311.62 146.739 311.671C78.7466 300.995 26.5283 242.788 25.16 172.125C25.6218 171.581 26.0898 171.044 26.5637 170.511C34.6443 161.434 44.466 153.94 55.5046 148.555C54.008 155.969 53.2225 163.641 53.2225 171.496C53.2225 235.183 104.851 286.812 168.539 286.812C170.004 286.812 171.462 286.785 172.914 286.73C166.155 296.276 157.653 304.5 147.871 310.938ZM169.278 25.1331C93.9302 25.1331 32.0851 82.9449 25.68 156.631L25.6738 156.637C32.0805 82.1303 94.5895 23.6547 170.756 23.6547C251.182 23.6547 316.38 88.8525 316.38 169.278C316.38 249.704 251.182 314.902 170.756 314.902C167.326 314.902 163.924 314.783 160.555 314.55C161.1 314.123 161.641 313.69 162.178 313.251C164.53 313.366 166.897 313.423 169.278 313.423C248.887 313.423 313.423 248.887 313.423 169.278C313.423 89.669 248.887 25.1331 169.278 25.1331ZM168.539 279.42C108.934 279.42 60.6146 231.101 60.6146 171.496C60.6146 162.338 61.7552 153.447 63.902 144.956C74.0492 141.187 85.0275 139.127 96.4867 139.127C148.171 139.127 190.07 181.026 190.07 232.711C190.07 249.56 185.617 265.369 177.824 279.026C174.764 279.287 171.667 279.42 168.539 279.42Z" fill="url(#paint10_radial_304_46)" fill-opacity="0.76"/>
<path fill-rule="evenodd" clip-rule="evenodd" d="M145.413 315.952C147.371 314.799 149.284 313.579 151.15 312.294C161.182 305.391 169.844 296.64 176.644 286.531C178.354 283.991 179.945 281.364 181.412 278.66C188.82 264.998 193.027 249.346 193.027 232.711C193.027 179.393 149.804 136.171 96.4867 136.171C85.4037 136.171 74.7572 138.038 64.8447 141.476C61.9316 142.486 59.082 143.632 56.3033 144.906C44.4226 150.352 33.8387 158.138 25.1416 167.673C23.6151 169.346 22.1467 171.074 20.7396 172.852C20.776 174.394 20.8359 175.93 20.9189 177.46C19.9666 178.759 19.0469 180.083 18.1611 181.432C17.2801 182.773 16.4326 184.138 15.6199 185.526C15.4515 183.899 15.3082 182.265 15.1902 180.623L15.1834 180.528C14.9185 176.813 14.7839 173.061 14.7839 169.278C14.7839 169.007 14.7845 168.736 14.7859 168.465C14.8119 163.374 15.0818 158.34 15.5846 153.376C23.5268 74.9444 89.5786 13.6807 170.017 13.3075C255.818 13.7056 325.25 83.3835 325.25 169.278C325.25 255.173 255.818 324.851 170.017 325.249C162.248 325.213 154.613 324.609 147.152 323.476L146.894 323.437C142.943 322.83 139.04 322.075 135.193 321.178L135.023 321.138C133.471 320.774 131.927 320.387 130.393 319.977C131.898 319.391 133.385 318.767 134.851 318.106C136.889 317.187 138.888 316.198 140.844 315.141C142.359 315.434 143.882 315.705 145.413 315.952ZM170.017 325.249C170.264 325.25 170.51 325.251 170.756 325.251C256.897 325.251 326.729 255.419 326.729 169.278C326.729 83.137 256.897 13.3058 170.756 13.3058C170.51 13.3058 170.263 13.3064 170.017 13.3075C169.771 13.3064 169.524 13.3058 169.278 13.3058C83.1368 13.3058 13.3056 83.137 13.3056 169.278C13.3056 255.419 83.1368 325.251 169.278 325.251C169.432 325.251 169.587 325.25 169.741 325.25L170.017 325.249ZM58.8527 135.803C73.882 89.586 117.309 56.1798 168.539 56.1798C232.226 56.1798 283.855 107.809 283.855 171.496C283.855 229.234 241.42 277.062 186.037 285.493C187.626 282.803 189.098 280.034 190.445 277.195C239.546 267.072 276.463 223.595 276.463 171.496C276.463 111.891 228.143 63.5719 168.539 63.5719C122.571 63.5719 83.3152 92.3105 67.7589 132.801C64.7312 133.67 61.7602 134.673 58.8527 135.803ZM147.871 310.938C147.576 311.132 147.28 311.325 146.983 311.515C146.902 311.568 146.82 311.62 146.739 311.671C78.7466 300.995 26.5283 242.788 25.16 172.125C25.6218 171.581 26.0898 171.044 26.5637 170.511C34.6443 161.434 44.466 153.94 55.5046 148.555C54.008 155.969 53.2225 163.641 53.2225 171.496C53.2225 235.183 104.851 286.812 168.539 286.812C170.004 286.812 171.462 286.785 172.914 286.73C166.155 296.276 157.653 304.5 147.871 310.938ZM169.278 25.1331C93.9302 25.1331 32.0851 82.9449 25.68 156.631L25.6738 156.637C32.0805 82.1303 94.5895 23.6547 170.756 23.6547C251.182 23.6547 316.38 88.8525 316.38 169.278C316.38 249.704 251.182 314.902 170.756 314.902C167.326 314.902 163.924 314.783 160.555 314.55C161.1 314.123 161.641 313.69 162.178 313.251C164.53 313.366 166.897 313.423 169.278 313.423C248.887 313.423 313.423 248.887 313.423 169.278C313.423 89.669 248.887 25.1331 169.278 25.1331ZM168.539 279.42C108.934 279.42 60.6146 231.101 60.6146 171.496C60.6146 162.338 61.7552 153.447 63.902 144.956C74.0492 141.187 85.0275 139.127 96.4867 139.127C148.171 139.127 190.07 181.026 190.07 232.711C190.07 249.56 185.617 265.369 177.824 279.026C174.764 279.287 171.667 279.42 168.539 279.42Z" fill="url(#paint11_radial_304_46)" fill-opacity="0.76"/>
<defs>
<linearGradient id="paint0_linear_304_46" x1="169.278" y1="0" x2="169.278" y2="338.556" gradientUnits="userSpaceOnUse">
<stop stop-color="#75A9E0" stop-opacity="0.8"/>
<stop offset="1" stop-color="#3571C8"/>
</linearGradient>
<radialGradient id="paint1_radial_304_46" cx="0" cy="0" r="1" gradientUnits="userSpaceOnUse" gradientTransform="translate(339 169) rotate(180) scale(170)">
<stop stop-color="#B7DBFA"/>
<stop offset="1" stop-color="#558ED9"/>
</radialGradient>
<radialGradient id="paint2_radial_304_46" cx="0" cy="0" r="1" gradientUnits="userSpaceOnUse" gradientTransform="translate(33 33) rotate(45) scale(192.333 313.919)">
<stop offset="0.0918445" stop-color="#B7DBFA"/>
<stop offset="1" stop-color="#558ED9" stop-opacity="0"/>
</radialGradient>
<linearGradient id="paint3_linear_304_46" x1="169.278" y1="0" x2="169.278" y2="338.556" gradientUnits="userSpaceOnUse">
<stop stop-color="#75A9E0" stop-opacity="0.8"/>
<stop offset="1" stop-color="#3571C8"/>
</linearGradient>
<radialGradient id="paint4_radial_304_46" cx="0" cy="0" r="1" gradientUnits="userSpaceOnUse" gradientTransform="translate(339 169) rotate(180) scale(170)">
<stop stop-color="#B7DBFA"/>
<stop offset="1" stop-color="#558ED9"/>
</radialGradient>
<radialGradient id="paint5_radial_304_46" cx="0" cy="0" r="1" gradientUnits="userSpaceOnUse" gradientTransform="translate(33 33) rotate(45) scale(192.333 313.919)">
<stop offset="0.0918445" stop-color="#B7DBFA"/>
<stop offset="1" stop-color="#558ED9" stop-opacity="0"/>
</radialGradient>
<linearGradient id="paint6_linear_304_46" x1="169.278" y1="0" x2="169.278" y2="338.556" gradientUnits="userSpaceOnUse">
<stop stop-color="#75A9E0" stop-opacity="0.8"/>
<stop offset="1" stop-color="#3571C8"/>
</linearGradient>
<radialGradient id="paint7_radial_304_46" cx="0" cy="0" r="1" gradientUnits="userSpaceOnUse" gradientTransform="translate(339 169) rotate(180) scale(170)">
<stop stop-color="#B7DBFA"/>
<stop offset="1" stop-color="#558ED9"/>
</radialGradient>
<radialGradient id="paint8_radial_304_46" cx="0" cy="0" r="1" gradientUnits="userSpaceOnUse" gradientTransform="translate(33 33) rotate(45) scale(192.333 313.919)">
<stop offset="0.0918445" stop-color="#B7DBFA"/>
<stop offset="1" stop-color="#558ED9" stop-opacity="0"/>
</radialGradient>
<linearGradient id="paint9_linear_304_46" x1="169.278" y1="0" x2="169.278" y2="338.556" gradientUnits="userSpaceOnUse">
<stop stop-color="#75A9E0" stop-opacity="0.8"/>
<stop offset="1" stop-color="#3571C8"/>
</linearGradient>
<radialGradient id="paint10_radial_304_46" cx="0" cy="0" r="1" gradientUnits="userSpaceOnUse" gradientTransform="translate(339 169) rotate(180) scale(170)">
<stop stop-color="#B7DBFA"/>
<stop offset="1" stop-color="#558ED9"/>
</radialGradient>
<radialGradient id="paint11_radial_304_46" cx="0" cy="0" r="1" gradientUnits="userSpaceOnUse" gradientTransform="translate(33 33) rotate(45) scale(192.333 313.919)">
<stop offset="0.0918445" stop-color="#B7DBFA"/>
<stop offset="1" stop-color="#558ED9" stop-opacity="0"/>
</radialGradient>
</defs>
</svg>
